<?xml version="1.0" encoding="utf-8"?>
<!-- Generator: Adobe Illustrator 15.0.0, SVG Export Plug-In . SVG Version: 6.00 Build 0)  -->
<!DOCTYPE svg PUBLIC "-//W3C//DTD SVG 1.1//EN" "http://www.w3.org/Graphics/SVG/1.1/DTD/svg11.dtd">
<svg version="1.1" id="Layer_1" xmlns="http://www.w3.org/2000/svg" xmlns:xlink="http://www.w3.org/1999/xlink" x="0px" y="0px"
	 width="290px" height="340px" viewBox="0 0 290 340" enable-background="new 0 0 290 340" xml:space="preserve">
<g>
	<g>
		<g>
			<path fill="#010101" d="M98.423,310.968c7.996,7.877,4.653,26.015-13.246,25.896c-17.184-0.121-46.659-31.146-65.752-31.146
				c-7.042,0-11.575,4.654-11.575,9.784c0,5.729-7.042,5.729-7.042,0c0-4.771,3.103-15.87,18.497-15.87c0,0,0-74.705,0.12-74.823
				c-0.12-6.205-1.313-8.114-3.102-9.786c-2.865-2.862,1.669-6.92,5.489-3.103c2.148,2.147,3.58,6.088,3.58,12.172l-0.12,76.017
				c17.543,3.341,48.211,30.549,59.787,30.668c12.53,0.119,13.724-11.098,8.592-15.274C89.473,312.163,94.366,306.91,98.423,310.968
				z"/>
			<path fill="#010101" d="M144.003,305.717c-10.143,0-16.468-4.775-16.468-23.51v-20.762h-5.728c-3.938,0-3.938-5.61,0-5.61h5.728
				v-23.151c0-3.938,5.61-3.938,5.61,0v23.151h10.858c4.057,0,4.057,5.61,0,5.61h-10.858v21.121c0,9.783,1.074,17.542,10.858,17.542
				C148.061,300.108,148.061,305.717,144.003,305.717z"/>
			<path fill="#010101" d="M156.532,239.365c-1.552-1.431-1.074-4.293,0.357-5.847c1.433-1.432,3.82-2.146,5.61-0.954
				c1.551,1.432,1.192,4.057-0.12,5.728C160.829,239.845,158.084,240.679,156.532,239.365z M163.333,305.717
				c-4.893,0-7.16-5.37-7.16-10.024v-36.637c0-3.938,5.61-3.938,5.61,0v31.624c0,5.729,0,8.711,3.938,9.665
				C168.107,300.704,167.511,305.717,163.333,305.717z"/>
			<path fill="#010101" d="M209.873,300.108c3.938,0,3.938,5.608,0,5.608h-30.43c-1.551-0.478-2.865-2.506-1.432-4.894
				l24.582-39.261h-21.718c-3.938,0-3.938-5.608,0-5.608h27.207c3.579,0,2.388,3.343,1.194,5.132
				c-0.478,0.954-17.901,28.76-24.345,39.022H209.873z"/>
			<path fill="#010101" d="M223.475,239.365c-1.552-1.431-1.073-4.293,0.359-5.847c1.432-1.432,3.818-2.146,5.608-0.954
				c1.551,1.432,1.193,4.057-0.119,5.728C227.771,239.845,225.026,240.679,223.475,239.365z M230.276,305.717
				c-4.892,0-7.159-5.37-7.159-10.024v-36.637c0-3.938,5.608-3.938,5.608,0v31.624c0,5.729,0,8.711,3.938,9.665
				C235.05,300.704,234.453,305.717,230.276,305.717z"/>
			<path fill="#010101" d="M284.572,305.717c-5.728-0.597-7.755-9.428-7.755-9.428s-4.894,9.428-17.186,9.428
				c-11.933,0-20.286-9.189-20.286-23.748c0-11.934,8.234-26.015,24.583-26.015c8.353,0,11.934,3.224,11.934,3.224
				c0-3.462,5.728-3.7,5.728,0.356v29.835c0,6.324,2.505,10.143,5.252,10.859C289.107,300.941,288.63,306.074,284.572,305.717z
				 M276.1,275.288c0-4.895-0.119-9.189-0.237-9.429c-0.239-0.836-4.535-4.413-11.934-4.413c-10.741,0-18.855,9.068-18.855,20.762
				c0,12.53,7.637,17.779,15.156,17.779c9.546,0,14.916-8.829,15.631-14.199C276.1,282.805,276.1,278.865,276.1,275.288z"/>
		</g>
		<path fill="#010101" d="M114.775,293.581c-4.295,7.04-11.216,12.176-19.691,12.176c-13.724-0.123-20.765-11.22-20.765-23.989
			c0-12.174,7.638-25.659,22.316-25.779c9.667,0,15.634,7.399,15.634,13.368c0,10.384-10.382,14.083-22.914,14.083h-9.309
			c0.357,11.693,9.309,16.587,15.992,16.587c8.234,0,12.052-5.609,14.082-8.592C112.627,287.614,117.162,289.881,114.775,293.581z
			 M80.167,277.829h9.309c7.28,0,11.218-0.954,14.32-3.104c2.028-1.432,2.984-3.462,2.984-5.609c0-3.698-3.461-7.519-9.907-7.519
			C88.521,261.598,82.435,267.326,80.167,277.829z"/>
	</g>
	<g>
		<circle fill="#010101" cx="144.5" cy="101.09" r="98.954"/>
		<g>
			<g>
				<path fill="#FFFFFF" d="M182.906,132.147c6.606,6.507,3.844,21.494-10.945,21.398c-14.202-0.102-38.556-25.739-54.334-25.739
					c-5.816,0-9.565,3.845-9.565,8.087c0,4.732-5.817,4.732-5.817,0c0-3.945,2.564-13.116,15.286-13.116c0,0,0-61.73,0.096-61.828
					c-0.096-5.128-1.083-6.705-2.562-8.087c-2.369-2.366,1.379-5.719,4.535-2.562c1.776,1.774,2.958,5.027,2.958,10.058
					l-0.097,62.813c14.495,2.762,39.835,25.244,49.402,25.342c10.352,0.1,11.34-9.17,7.099-12.621
					C175.511,133.131,179.553,128.795,182.906,132.147z"/>
			</g>
			<path fill="#75C044" d="M104.789,85.421c2.49,4.734,2.995,11.854,0.719,18.133c-7.801-1.602-9.735-22.619-15.686-21.015
				c5.009-0.148,5.711,22.011,15.409,22.523c1.241,0.598,2.419,1.282,3.519,2.05c11.251,7.95,15.166,23.908,8.984,32.911
				c-0.466,0.665-0.991,1.29-1.577,1.867c-0.359,0.352-0.912,0.389-1.31,0.11c-0.052-0.035-0.098-0.076-0.145-0.121
				c-0.397-0.404-0.391-1.057,0.012-1.454c0.497-0.487,0.94-1.013,1.336-1.581c2.672-3.798,3.229-9.478,1.731-15.146
				c-1.492-5.664-5.009-11.263-10.209-14.901c-1.296-0.906-2.707-1.674-4.208-2.314c-4.687-1.313-10.547-4.802-10.547-4.802
				c-14.716-9.053-4.267-20.871-8.389-26.412C96.437,74.62,103.331,82.62,104.789,85.421z"/>
			<path fill="#FFFFFF" d="M112.697,140.391c-2.53,0-4.579-1.889-4.638-4.407l-5.812-0.289c0,4.648,3.751,8.416,8.401,8.416
				c3.823,0,7.485-3.234,8.51-6.729C118.468,138.073,116.126,140.391,112.697,140.391z"/>
		</g>
	</g>
</g>
</svg>
